<svg xmlns="http://www.w3.org/2000/svg" width="157.5" height="37" viewBox="0 0 157.5 37">
  <g id="Group_3" data-name="Group 3" transform="translate(-272.5 -278)">
    <text id="Signature" transform="translate(305 307)" fill="#0d0836" font-size="30" font-family="Courgette-Regular, Courgette" letter-spacing="-0.002em"><tspan x="0" y="0">Signature</tspan></text>
    <path id="Path_2" data-name="Path 2" d="M26.106,103.46a14.482,14.482,0,0,1-7.376-1.837,16.709,16.709,0,0,1-7.243,1.837C4.249,103.46,0,99.566,0,93.018a2.088,2.088,0,1,1,4.177,0c0,4.155,2.3,6.265,7.31,6.265a11.327,11.327,0,0,0,3.826-.737,10.983,10.983,0,0,1-1.675-9.168c1.318-5.274,4.755-8.892,9.336-8.892,5.479,0,7.722,6.978,5,12.421A18.868,18.868,0,0,1,22.983,98.9a11.987,11.987,0,0,0,3.124.388C31.673,99.284,32.691,103.46,26.106,103.46ZM24.238,91.039c1.524-3.047.454-6.376-1.265-6.376-2.364,0-4.383,2.125-5.283,5.728a6.735,6.735,0,0,0,1.4,6.194,15.635,15.635,0,0,0,5.148-5.547ZM2.089,112.858a2.088,2.088,0,1,1,0-4.177h45.5a2.088,2.088,0,0,1,0,4.177Z" transform="translate(272.5 201.587)" fill="#693abe"/>
  </g>
</svg>
