<svg xmlns="http://www.w3.org/2000/svg" width="13.665" height="9.11" viewBox="0 0 13.665 9.11">
  <path id="Icon_awesome-eye" data-name="Icon awesome-eye" d="M13.583,8.709A7.609,7.609,0,0,0,6.833,4.5,7.61,7.61,0,0,0,.083,8.709a.767.767,0,0,0,0,.693,7.609,7.609,0,0,0,6.75,4.209A7.61,7.61,0,0,0,13.583,9.4.767.767,0,0,0,13.583,8.709Zm-6.75,3.763a3.416,3.416,0,1,1,3.416-3.416A3.416,3.416,0,0,1,6.833,12.471Zm0-5.694a2.261,2.261,0,0,0-.6.09A1.135,1.135,0,0,1,4.645,8.455,2.272,2.272,0,1,0,6.833,6.778Z" transform="translate(0 -4.5)" fill="#828191" opacity="0.5"/>
</svg>
