<svg xmlns="http://www.w3.org/2000/svg" width="262.77" height="34.987" viewBox="0 0 262.77 34.987">
  <g id="Cygnet_New_Logo" data-name="Cygnet New Logo" transform="translate(0 112.886)">
    <g id="Group_3" data-name="Group 3" transform="translate(0 -112.886)">
      <g id="Wordmark" transform="translate(42.71 4.41)">
        <g id="Cygnet" transform="translate(0 1.169)">
          <path id="Path_1" data-name="Path 1" d="M112.987-78.774a14.019,14.019,0,0,1-5.778,1.039C101.042-77.736,96.4-81.63,96.4-88.8c0-6.849,4.642-11.491,11.426-11.491a11.73,11.73,0,0,1,5.194.974l-.682,2.3a10.281,10.281,0,0,0-4.415-.909c-5.129,0-8.537,3.279-8.537,9.024,0,5.356,3.084,8.8,8.407,8.8a11.306,11.306,0,0,0,4.609-.909Z" transform="translate(-96.4 100.295)" fill="#fff"/>
          <path id="Path_2" data-name="Path 2" d="M140.032-85.569l3.441,9.283c.357,1.039.746,2.272,1.006,3.213h.065c.292-.941.617-2.142,1.007-3.278l3.116-9.219h3.019L147.4-74.37c-2.045,5.388-3.44,8.147-5.388,9.835a7.741,7.741,0,0,1-3.506,1.85l-.714-2.4a7.568,7.568,0,0,0,2.5-1.4,8.662,8.662,0,0,0,2.4-3.181,2.055,2.055,0,0,0,.227-.682,2.5,2.5,0,0,0-.195-.747l-5.81-14.477Z" transform="translate(-118.965 92.093)" fill="#fff"/>
          <path id="Path_3" data-name="Path 3" d="M188.954-86.018c-.065,1.136-.129,2.4-.129,4.317v9.121c0,3.6-.714,5.81-2.24,7.174a8.331,8.331,0,0,1-5.713,1.883,10.139,10.139,0,0,1-5.226-1.3L176.36-67a8.859,8.859,0,0,0,4.609,1.233c2.921,0,5.064-1.525,5.064-5.485V-73h-.065a5.608,5.608,0,0,1-5,2.629c-3.9,0-6.687-3.311-6.687-7.66,0-5.324,3.473-8.342,7.076-8.342a5.226,5.226,0,0,1,4.9,2.727h.065l.13-2.369ZM186-79.818a4.067,4.067,0,0,0-.163-1.3,4.114,4.114,0,0,0-3.992-3.019c-2.727,0-4.674,2.3-4.674,5.94,0,3.084,1.558,5.648,4.642,5.648a4.176,4.176,0,0,0,3.96-2.921A4.975,4.975,0,0,0,186-76.994Z" transform="translate(-139.777 92.542)" fill="#fff"/>
          <path id="Path_4" data-name="Path 4" d="M218.665-81.766c0-1.623-.032-2.953-.129-4.252h2.532l.162,2.6h.065a5.777,5.777,0,0,1,5.193-2.954c2.175,0,5.551,1.3,5.551,6.687v9.381h-2.857v-9.056c0-2.532-.941-4.642-3.636-4.642a4.058,4.058,0,0,0-3.83,2.921,4.1,4.1,0,0,0-.195,1.331v9.446h-2.857Z" transform="translate(-164.423 92.542)" fill="#fff"/>
          <path id="Path_5" data-name="Path 5" d="M261.046-77.643c.065,3.863,2.533,5.454,5.388,5.454a10.335,10.335,0,0,0,4.35-.812l.487,2.045a12.722,12.722,0,0,1-5.226.974c-4.836,0-7.725-3.181-7.725-7.92s2.791-8.472,7.368-8.472c5.129,0,6.492,4.512,6.492,7.4a10.789,10.789,0,0,1-.1,1.331Zm8.375-2.045c.033-1.817-.746-4.641-3.96-4.641-2.889,0-4.155,2.661-4.382,4.641Z" transform="translate(-186.581 92.542)" fill="#fff"/>
          <path id="Path_6" data-name="Path 6" d="M300.252-95.753v4.512h4.09v2.175h-4.09v8.472c0,1.947.552,3.051,2.142,3.051a6.377,6.377,0,0,0,1.656-.195l.129,2.142a6.989,6.989,0,0,1-2.532.389,3.958,3.958,0,0,1-3.084-1.2c-.812-.844-1.1-2.24-1.1-4.09v-8.57h-2.435v-2.175h2.435v-3.766Z" transform="translate(-207.024 97.765)" fill="#fff"/>
        </g>
        <g id="Infotech" transform="translate(109.039)">
          <path id="Path_7" data-name="Path 7" d="M344.033-99.489v21.878h-1.526V-99.489Z" transform="translate(-342.507 101.015)" fill="#fff"/>
          <path id="Path_8" data-name="Path 8" d="M360.222-81.992c0-1.428-.065-2.5-.13-3.733h1.428l.13,2.824h.065a5.847,5.847,0,0,1,5.356-3.181c1.493,0,5.42.747,5.42,6.59v9.348h-1.525v-9.219c0-2.824-1.1-5.388-4.317-5.388a4.976,4.976,0,0,0-4.674,3.571,4.643,4.643,0,0,0-.228,1.4v9.64h-1.525Z" transform="translate(-352.301 93.548)" fill="#fff"/>
          <path id="Path_9" data-name="Path 9" d="M398.452-79.529V-93.877h-2.24V-95.11h2.24v-.844c0-2.4.454-4.349,1.72-5.616a4.886,4.886,0,0,1,3.441-1.363,5.073,5.073,0,0,1,2.337.52l-.487,1.233a4.024,4.024,0,0,0-1.98-.455c-2.889,0-3.505,2.661-3.505,5.648v.876h4.187v1.233h-4.187v14.347Z" transform="translate(-372.418 102.933)" fill="#fff"/>
          <path id="Path_10" data-name="Path 10" d="M432.286-78.1c0,5.843-3.992,8.309-7.465,8.309-4.026,0-7.142-3.148-7.142-8.017,0-5.356,3.506-8.278,7.368-8.278C429.365-86.082,432.286-82.868,432.286-78.1Zm-13.049.195c0,3.895,2.5,6.816,5.68,6.816,3.246,0,5.81-2.921,5.81-6.914,0-2.856-1.623-6.817-5.713-6.817C421.055-84.816,419.237-81.246,419.237-77.9Z" transform="translate(-384.374 93.548)" fill="#fff"/>
          <path id="Path_11" data-name="Path 11" d="M460.625-95.459v4.512h4.447v1.233h-4.447v10.127c0,1.98.617,3.246,2.272,3.246a5.6,5.6,0,0,0,1.786-.26l.195,1.2a6.153,6.153,0,0,1-2.175.357,3.232,3.232,0,0,1-2.662-1.1,5.59,5.59,0,0,1-.973-3.7v-9.868h-2.63v-1.233h2.63v-4.025Z" transform="translate(-405.96 98.77)" fill="#fff"/>
          <path id="Path_12" data-name="Path 12" d="M483.314-78.1c0,5,2.727,6.947,5.94,6.947a9.055,9.055,0,0,0,4.317-.876l.389,1.233a10.419,10.419,0,0,1-4.9.974c-4.479,0-7.271-3.246-7.271-7.823,0-5.193,2.987-8.439,7.011-8.439,5.1,0,6.07,4.8,6.07,7.044a3.878,3.878,0,0,1-.065.941Zm9.932-1.233c.032-2.175-.876-5.486-4.641-5.486-3.441,0-4.934,3.084-5.194,5.486Z" transform="translate(-420.079 93.548)" fill="#fff"/>
          <path id="Path_13" data-name="Path 13" d="M530.83-70.826a10.1,10.1,0,0,1-4.544,1.006c-4.512,0-7.5-3.246-7.5-7.952,0-4.934,3.376-8.31,8.05-8.31a8.073,8.073,0,0,1,4.09.974l-.552,1.266a7.561,7.561,0,0,0-3.7-.909c-4.187,0-6.33,3.213-6.33,6.882,0,4.057,2.564,6.719,6.168,6.719a9.186,9.186,0,0,0,3.9-.876Z" transform="translate(-440.685 93.548)" fill="#fff"/>
          <path id="Path_14" data-name="Path 14" d="M555.787-102.127h1.526v10.258h.065a5.74,5.74,0,0,1,2.143-2.272,5.864,5.864,0,0,1,3.148-.876c1.461,0,5.388.747,5.388,6.524v9.414h-1.526V-88.3c0-2.824-1.1-5.388-4.284-5.388a5.1,5.1,0,0,0-4.707,3.538,4.311,4.311,0,0,0-.227,1.526v9.543h-1.526Z" transform="translate(-461.293 102.484)" fill="#fff"/>
        </g>
      </g>
      <g id="Logomark">
        <g id="Group_1" data-name="Group 1" transform="translate(18.212 31.581)">
          <path id="Path_15" data-name="Path 15" d="M41.483-38.2l-.377-.813a31.62,31.62,0,0,1,6.43-2.032A22.105,22.105,0,0,1,54.7-41.49l.2.028a29.556,29.556,0,0,1,3.04.518v.93c-.972-.243-2.251-.432-3.165-.56l-.2-.028a21.189,21.189,0,0,0-6.865.436A31.285,31.285,0,0,0,41.483-38.2Z" transform="translate(-41.106 41.606)" fill="#fff"/>
        </g>
        <g id="Group_2" data-name="Group 2" transform="translate(10.63 6.114)">
          <path id="Path_16" data-name="Path 16" d="M48.414-98.855v3.338a20.879,20.879,0,0,0-3.125-.235A20.605,20.605,0,0,0,24.683-75.147a14.506,14.506,0,0,0,.3,3.505,17.292,17.292,0,0,1-.989-6.149,21.3,21.3,0,0,1,21.3-21.3A20.82,20.82,0,0,1,48.414-98.855Z" transform="translate(-23.992 99.087)" fill="#fff"/>
          <path id="Path_17" data-name="Path 17" d="M54.216-98.855v3.338A20.614,20.614,0,0,0,34.41-91.024l.233-.294a14.553,14.553,0,0,1,2.59-2.643l.353-.3a21.229,21.229,0,0,1,13.506-4.828A20.82,20.82,0,0,1,54.216-98.855Z" transform="translate(-29.794 99.087)" fill="#1ca7e3"/>
        </g>
        <path id="Path_18" data-name="Path 18" d="M22.662-107.573c-.126,4.629-3.95,6.091-5.669,10.535a19.4,19.4,0,0,0,.379,17.712c-4.828-5.855-5.661-14.214-1.6-20.356,1.813-3.131,4.394-5.6,4.559-8.277l0,0c.373-3.715-5.026-4.559-6.162-1.35-.366,2.6,1.623,5.468-1.732,6.85a3.5,3.5,0,0,1-2.114.191c2.79-1.443.379-4.531,1.331-6.784C13.313-114.941,22.609-113.731,22.662-107.573Z" transform="translate(-5.753 112.886)" fill="#fff"/>
        <path id="Path_19" data-name="Path 19" d="M35.049-45.742c-9.765-2.036-18.872,3.9-28.491,4.415C-4.692-41,.357-48.8,8.1-45.782c-9.2-.559-6.255,5.422,1.783,3.437,8.364-1.719,16.415-6.586,25.167-4.225Z" transform="translate(0 76.305)" fill="#fff"/>
      </g>
    </g>
    <g id="Group_4" data-name="Group 4" transform="translate(256.206 -111.333)">
      <path id="Path_20" data-name="Path 20" d="M584.837-106.187a3.21,3.21,0,0,1-3.272,3.233,3.239,3.239,0,0,1-3.292-3.233,3.231,3.231,0,0,1,3.292-3.194A3.2,3.2,0,0,1,584.837-106.187Zm-5.746,0a2.475,2.475,0,0,0,2.493,2.552,2.446,2.446,0,0,0,2.435-2.532,2.472,2.472,0,0,0-2.455-2.571A2.482,2.482,0,0,0,579.092-106.187Zm1.967,1.675h-.74v-3.195a6.511,6.511,0,0,1,1.227-.1,1.987,1.987,0,0,1,1.11.234.885.885,0,0,1,.311.7.818.818,0,0,1-.662.74v.039a.942.942,0,0,1,.584.779,2.436,2.436,0,0,0,.234.8h-.8a2.728,2.728,0,0,1-.254-.779c-.058-.35-.253-.506-.661-.506h-.351Zm.02-1.811h.351c.408,0,.74-.137.74-.468,0-.292-.214-.487-.681-.487a1.767,1.767,0,0,0-.409.039Z" transform="translate(-578.273 109.381)" fill="#fff"/>
    </g>
  </g>
</svg>
